<mxfile host="app.diagrams.net" modified="2023-05-25T08:06:36.939Z" agent="Mozilla/5.0 (Windows NT 10.0; Win64; x64) AppleWebKit/537.36 (KHTML, like Gecko) Chrome/113.0.0.0 Safari/537.36" etag="Q4fuI5psG_mlINBT-tVU" version="21.3.3" type="device">
  <diagram name="페이지-1" id="tnJ8LOeZiMn-7PxVlVNJ">
    <mxGraphModel dx="2868" dy="1478" grid="1" gridSize="10" guides="1" tooltips="1" connect="1" arrows="1" fold="1" page="1" pageScale="1" pageWidth="3300" pageHeight="4681" math="0" shadow="0">
      <root>
        <mxCell id="0" />
        <mxCell id="1" parent="0" />
        <mxCell id="WxyTkHaTY3lBjSbzuxuf-1" value="&lt;font style=&quot;&quot;&gt;&lt;font style=&quot;font-size: 20px;&quot;&gt;App&lt;/font&gt;&lt;br style=&quot;font-size: 15px;&quot;&gt;&lt;/font&gt;" style="rounded=0;whiteSpace=wrap;html=1;fontSize=15;" vertex="1" parent="1">
          <mxGeometry x="1860" y="340" width="160" height="80" as="geometry" />
        </mxCell>
        <mxCell id="WxyTkHaTY3lBjSbzuxuf-3" value="&lt;font style=&quot;font-size: 20px;&quot;&gt;&lt;font style=&quot;font-size: 20px;&quot;&gt;router-view&lt;/font&gt;&lt;br style=&quot;font-size: 20px;&quot;&gt;&lt;/font&gt;" style="rounded=0;whiteSpace=wrap;html=1;fontSize=20;" vertex="1" parent="1">
          <mxGeometry x="1860" y="500" width="160" height="80" as="geometry" />
        </mxCell>
        <mxCell id="WxyTkHaTY3lBjSbzuxuf-4" value="&lt;font style=&quot;font-size: 20px;&quot;&gt;&lt;span style=&quot;font-size: 20px;&quot;&gt;router-link&lt;/span&gt;&lt;br style=&quot;font-size: 20px;&quot;&gt;&lt;/font&gt;" style="rounded=0;whiteSpace=wrap;html=1;fontSize=20;" vertex="1" parent="1">
          <mxGeometry x="1610" y="500" width="160" height="80" as="geometry" />
        </mxCell>
        <mxCell id="WxyTkHaTY3lBjSbzuxuf-6" value="" style="endArrow=none;html=1;rounded=0;entryX=0.5;entryY=1;entryDx=0;entryDy=0;exitX=0.5;exitY=0;exitDx=0;exitDy=0;" edge="1" parent="1" source="WxyTkHaTY3lBjSbzuxuf-3" target="WxyTkHaTY3lBjSbzuxuf-1">
          <mxGeometry width="50" height="50" relative="1" as="geometry">
            <mxPoint x="1960" y="630" as="sourcePoint" />
            <mxPoint x="2010" y="580" as="targetPoint" />
          </mxGeometry>
        </mxCell>
        <mxCell id="WxyTkHaTY3lBjSbzuxuf-7" value="" style="endArrow=none;html=1;rounded=0;exitX=1;exitY=0.5;exitDx=0;exitDy=0;entryX=0;entryY=0.5;entryDx=0;entryDy=0;fontSize=20;" edge="1" parent="1" source="WxyTkHaTY3lBjSbzuxuf-4" target="WxyTkHaTY3lBjSbzuxuf-3">
          <mxGeometry width="50" height="50" relative="1" as="geometry">
            <mxPoint x="1960" y="630" as="sourcePoint" />
            <mxPoint x="2010" y="580" as="targetPoint" />
          </mxGeometry>
        </mxCell>
        <mxCell id="WxyTkHaTY3lBjSbzuxuf-8" value="&lt;font style=&quot;font-size: 20px;&quot;&gt;&lt;span style=&quot;font-size: 20px;&quot;&gt;login&lt;/span&gt;&lt;br style=&quot;font-size: 20px;&quot;&gt;&lt;/font&gt;" style="rounded=0;whiteSpace=wrap;html=1;fontSize=20;" vertex="1" parent="1">
          <mxGeometry x="2540" y="660" width="160" height="80" as="geometry" />
        </mxCell>
        <mxCell id="WxyTkHaTY3lBjSbzuxuf-9" value="&lt;font style=&quot;font-size: 20px;&quot;&gt;&lt;span style=&quot;font-size: 20px;&quot;&gt;sign up&lt;/span&gt;&lt;br style=&quot;font-size: 20px;&quot;&gt;&lt;/font&gt;" style="rounded=0;whiteSpace=wrap;html=1;fontSize=20;" vertex="1" parent="1">
          <mxGeometry x="2320" y="660" width="160" height="80" as="geometry" />
        </mxCell>
        <mxCell id="WxyTkHaTY3lBjSbzuxuf-10" value="&lt;font style=&quot;font-size: 20px;&quot;&gt;&lt;span style=&quot;font-size: 20px;&quot;&gt;movie&lt;/span&gt;&lt;br style=&quot;font-size: 20px;&quot;&gt;&lt;/font&gt;" style="rounded=0;whiteSpace=wrap;html=1;fontSize=20;" vertex="1" parent="1">
          <mxGeometry x="1180" y="660" width="160" height="80" as="geometry" />
        </mxCell>
        <mxCell id="WxyTkHaTY3lBjSbzuxuf-11" value="&lt;font style=&quot;font-size: 20px;&quot;&gt;&lt;span style=&quot;font-size: 20px;&quot;&gt;community&lt;/span&gt;&lt;br style=&quot;font-size: 20px;&quot;&gt;&lt;/font&gt;" style="rounded=0;whiteSpace=wrap;html=1;fontSize=20;" vertex="1" parent="1">
          <mxGeometry x="570" y="660" width="160" height="80" as="geometry" />
        </mxCell>
        <mxCell id="WxyTkHaTY3lBjSbzuxuf-12" value="&lt;font style=&quot;font-size: 20px;&quot;&gt;&lt;span style=&quot;font-size: 20px;&quot;&gt;entertain&lt;/span&gt;&lt;br style=&quot;font-size: 20px;&quot;&gt;&lt;/font&gt;" style="rounded=0;whiteSpace=wrap;html=1;fontSize=20;" vertex="1" parent="1">
          <mxGeometry x="1860" y="660" width="160" height="80" as="geometry" />
        </mxCell>
        <mxCell id="WxyTkHaTY3lBjSbzuxuf-13" value="&lt;font style=&quot;font-size: 20px;&quot;&gt;&lt;span style=&quot;font-size: 20px;&quot;&gt;profile&lt;/span&gt;&lt;br style=&quot;font-size: 20px;&quot;&gt;&lt;/font&gt;" style="rounded=0;whiteSpace=wrap;html=1;fontSize=20;" vertex="1" parent="1">
          <mxGeometry x="2980" y="660" width="160" height="80" as="geometry" />
        </mxCell>
        <mxCell id="WxyTkHaTY3lBjSbzuxuf-14" value="" style="endArrow=none;html=1;rounded=0;entryX=0.5;entryY=1;entryDx=0;entryDy=0;fontSize=20;" edge="1" parent="1" target="WxyTkHaTY3lBjSbzuxuf-3">
          <mxGeometry width="50" height="50" relative="1" as="geometry">
            <mxPoint x="1940" y="660" as="sourcePoint" />
            <mxPoint x="1640" y="600" as="targetPoint" />
          </mxGeometry>
        </mxCell>
        <mxCell id="WxyTkHaTY3lBjSbzuxuf-16" value="" style="endArrow=none;html=1;rounded=0;exitX=0.5;exitY=0;exitDx=0;exitDy=0;fontSize=20;" edge="1" parent="1" source="WxyTkHaTY3lBjSbzuxuf-11">
          <mxGeometry width="50" height="50" relative="1" as="geometry">
            <mxPoint x="960" y="650" as="sourcePoint" />
            <mxPoint x="650" y="620" as="targetPoint" />
          </mxGeometry>
        </mxCell>
        <mxCell id="WxyTkHaTY3lBjSbzuxuf-17" value="" style="endArrow=none;html=1;rounded=0;fontSize=20;" edge="1" parent="1">
          <mxGeometry width="50" height="50" relative="1" as="geometry">
            <mxPoint x="650" y="620" as="sourcePoint" />
            <mxPoint x="3060" y="620" as="targetPoint" />
          </mxGeometry>
        </mxCell>
        <mxCell id="WxyTkHaTY3lBjSbzuxuf-18" value="" style="endArrow=none;html=1;rounded=0;exitX=0.5;exitY=0;exitDx=0;exitDy=0;fontSize=20;" edge="1" parent="1" source="WxyTkHaTY3lBjSbzuxuf-13">
          <mxGeometry width="50" height="50" relative="1" as="geometry">
            <mxPoint x="2540" y="650" as="sourcePoint" />
            <mxPoint x="3060" y="620" as="targetPoint" />
          </mxGeometry>
        </mxCell>
        <mxCell id="WxyTkHaTY3lBjSbzuxuf-19" value="" style="endArrow=none;html=1;rounded=0;exitX=0.5;exitY=0;exitDx=0;exitDy=0;fontSize=20;" edge="1" parent="1" source="WxyTkHaTY3lBjSbzuxuf-8">
          <mxGeometry width="50" height="50" relative="1" as="geometry">
            <mxPoint x="2220" y="470" as="sourcePoint" />
            <mxPoint x="2620" y="620" as="targetPoint" />
          </mxGeometry>
        </mxCell>
        <mxCell id="WxyTkHaTY3lBjSbzuxuf-20" value="" style="endArrow=none;html=1;rounded=0;exitX=0.5;exitY=0;exitDx=0;exitDy=0;fontSize=20;" edge="1" parent="1" source="WxyTkHaTY3lBjSbzuxuf-9">
          <mxGeometry width="50" height="50" relative="1" as="geometry">
            <mxPoint x="2410" y="560" as="sourcePoint" />
            <mxPoint x="2400" y="620" as="targetPoint" />
          </mxGeometry>
        </mxCell>
        <mxCell id="WxyTkHaTY3lBjSbzuxuf-21" value="" style="endArrow=none;html=1;rounded=0;exitX=0.5;exitY=0;exitDx=0;exitDy=0;fontSize=20;" edge="1" parent="1" source="WxyTkHaTY3lBjSbzuxuf-10">
          <mxGeometry width="50" height="50" relative="1" as="geometry">
            <mxPoint x="1520" y="560" as="sourcePoint" />
            <mxPoint x="1260" y="620" as="targetPoint" />
          </mxGeometry>
        </mxCell>
        <mxCell id="WxyTkHaTY3lBjSbzuxuf-23" value="" style="endArrow=none;html=1;rounded=0;entryX=0.5;entryY=1;entryDx=0;entryDy=0;fontSize=20;" edge="1" parent="1" target="WxyTkHaTY3lBjSbzuxuf-11">
          <mxGeometry width="50" height="50" relative="1" as="geometry">
            <mxPoint x="650" y="820" as="sourcePoint" />
            <mxPoint x="1340" y="590" as="targetPoint" />
          </mxGeometry>
        </mxCell>
        <mxCell id="WxyTkHaTY3lBjSbzuxuf-28" value="" style="endArrow=none;html=1;rounded=0;fontSize=20;" edge="1" parent="1">
          <mxGeometry width="50" height="50" relative="1" as="geometry">
            <mxPoint x="410" y="780" as="sourcePoint" />
            <mxPoint x="650" y="780" as="targetPoint" />
          </mxGeometry>
        </mxCell>
        <mxCell id="WxyTkHaTY3lBjSbzuxuf-29" value="" style="endArrow=none;html=1;rounded=0;entryX=0.5;entryY=0;entryDx=0;entryDy=0;fontSize=20;" edge="1" parent="1" target="WxyTkHaTY3lBjSbzuxuf-32">
          <mxGeometry width="50" height="50" relative="1" as="geometry">
            <mxPoint x="410" y="780" as="sourcePoint" />
            <mxPoint x="530" y="780" as="targetPoint" />
          </mxGeometry>
        </mxCell>
        <mxCell id="WxyTkHaTY3lBjSbzuxuf-30" value="" style="endArrow=none;html=1;rounded=0;exitX=0.5;exitY=0;exitDx=0;exitDy=0;fontSize=20;" edge="1" parent="1" source="WxyTkHaTY3lBjSbzuxuf-31">
          <mxGeometry width="50" height="50" relative="1" as="geometry">
            <mxPoint x="770" y="820" as="sourcePoint" />
            <mxPoint x="650" y="780" as="targetPoint" />
          </mxGeometry>
        </mxCell>
        <mxCell id="WxyTkHaTY3lBjSbzuxuf-31" value="&lt;font style=&quot;font-size: 20px;&quot;&gt;&lt;span style=&quot;font-size: 20px;&quot;&gt;Moviereview&lt;/span&gt;&lt;br style=&quot;font-size: 20px;&quot;&gt;&lt;/font&gt;" style="rounded=0;whiteSpace=wrap;html=1;fontSize=20;" vertex="1" parent="1">
          <mxGeometry x="570" y="820" width="160" height="80" as="geometry" />
        </mxCell>
        <mxCell id="WxyTkHaTY3lBjSbzuxuf-32" value="&lt;font style=&quot;font-size: 20px;&quot;&gt;&lt;span style=&quot;font-size: 20px;&quot;&gt;Freeboardlist&lt;/span&gt;&lt;br style=&quot;font-size: 20px;&quot;&gt;&lt;/font&gt;" style="rounded=0;whiteSpace=wrap;html=1;fontSize=20;" vertex="1" parent="1">
          <mxGeometry x="330" y="820" width="160" height="80" as="geometry" />
        </mxCell>
        <mxCell id="WxyTkHaTY3lBjSbzuxuf-33" value="&lt;font style=&quot;font-size: 20px;&quot;&gt;&lt;span style=&quot;font-size: 20px;&quot;&gt;Freeboardlist&lt;/span&gt;&lt;br style=&quot;font-size: 20px;&quot;&gt;&lt;/font&gt;" style="rounded=0;whiteSpace=wrap;html=1;fontSize=20;" vertex="1" parent="1">
          <mxGeometry x="330" y="980" width="160" height="80" as="geometry" />
        </mxCell>
        <mxCell id="WxyTkHaTY3lBjSbzuxuf-37" value="" style="endArrow=none;html=1;rounded=0;exitX=0.5;exitY=1;exitDx=0;exitDy=0;entryX=0.5;entryY=0;entryDx=0;entryDy=0;fontSize=20;" edge="1" parent="1" source="WxyTkHaTY3lBjSbzuxuf-32" target="WxyTkHaTY3lBjSbzuxuf-33">
          <mxGeometry width="50" height="50" relative="1" as="geometry">
            <mxPoint x="1170" y="860" as="sourcePoint" />
            <mxPoint x="1220" y="810" as="targetPoint" />
          </mxGeometry>
        </mxCell>
        <mxCell id="WxyTkHaTY3lBjSbzuxuf-38" value="" style="endArrow=none;html=1;rounded=0;exitX=0.5;exitY=1;exitDx=0;exitDy=0;fontSize=20;" edge="1" parent="1" source="WxyTkHaTY3lBjSbzuxuf-33">
          <mxGeometry width="50" height="50" relative="1" as="geometry">
            <mxPoint x="450" y="1130" as="sourcePoint" />
            <mxPoint x="410" y="1140" as="targetPoint" />
            <Array as="points" />
          </mxGeometry>
        </mxCell>
        <mxCell id="WxyTkHaTY3lBjSbzuxuf-39" value="&lt;font style=&quot;font-size: 20px;&quot;&gt;&lt;span style=&quot;font-size: 20px;&quot;&gt;Freeboardlist&lt;/span&gt;&lt;br style=&quot;font-size: 20px;&quot;&gt;&lt;/font&gt;" style="rounded=0;whiteSpace=wrap;html=1;fontSize=20;" vertex="1" parent="1">
          <mxGeometry x="340" y="990" width="160" height="80" as="geometry" />
        </mxCell>
        <mxCell id="WxyTkHaTY3lBjSbzuxuf-40" value="&lt;font style=&quot;font-size: 20px;&quot;&gt;&lt;span style=&quot;font-size: 20px;&quot;&gt;Freeboard&lt;br style=&quot;font-size: 20px;&quot;&gt;detail&lt;/span&gt;&lt;br style=&quot;font-size: 20px;&quot;&gt;&lt;/font&gt;" style="rounded=0;whiteSpace=wrap;html=1;fontSize=20;" vertex="1" parent="1">
          <mxGeometry x="350" y="1000" width="160" height="80" as="geometry" />
        </mxCell>
        <mxCell id="WxyTkHaTY3lBjSbzuxuf-41" value="&lt;font style=&quot;font-size: 20px;&quot;&gt;&lt;span style=&quot;font-size: 20px;&quot;&gt;Freeboard&lt;br style=&quot;font-size: 20px;&quot;&gt;&lt;/span&gt;comment&lt;br style=&quot;font-size: 20px;&quot;&gt;&lt;/font&gt;" style="rounded=0;whiteSpace=wrap;html=1;fontSize=20;" vertex="1" parent="1">
          <mxGeometry x="330" y="1140" width="160" height="80" as="geometry" />
        </mxCell>
        <mxCell id="WxyTkHaTY3lBjSbzuxuf-42" value="&lt;font style=&quot;font-size: 20px;&quot;&gt;&lt;span style=&quot;font-size: 20px;&quot;&gt;Freeboard&lt;br style=&quot;font-size: 20px;&quot;&gt;&lt;/span&gt;update&lt;br style=&quot;font-size: 20px;&quot;&gt;&lt;/font&gt;" style="rounded=0;whiteSpace=wrap;html=1;fontSize=20;" vertex="1" parent="1">
          <mxGeometry x="120" y="980" width="160" height="80" as="geometry" />
        </mxCell>
        <mxCell id="WxyTkHaTY3lBjSbzuxuf-43" value="" style="endArrow=none;html=1;rounded=0;fontSize=20;" edge="1" parent="1">
          <mxGeometry width="50" height="50" relative="1" as="geometry">
            <mxPoint x="200" y="940" as="sourcePoint" />
            <mxPoint x="410" y="940" as="targetPoint" />
          </mxGeometry>
        </mxCell>
        <mxCell id="WxyTkHaTY3lBjSbzuxuf-44" value="" style="endArrow=none;html=1;rounded=0;exitX=0.5;exitY=0;exitDx=0;exitDy=0;fontSize=20;" edge="1" parent="1" source="WxyTkHaTY3lBjSbzuxuf-42">
          <mxGeometry width="50" height="50" relative="1" as="geometry">
            <mxPoint x="880" y="980" as="sourcePoint" />
            <mxPoint x="200" y="940" as="targetPoint" />
          </mxGeometry>
        </mxCell>
        <mxCell id="WxyTkHaTY3lBjSbzuxuf-45" value="&lt;font style=&quot;font-size: 20px;&quot;&gt;&lt;span style=&quot;font-size: 20px;&quot;&gt;Moviereview&lt;/span&gt;&lt;br style=&quot;font-size: 20px;&quot;&gt;&lt;/font&gt;" style="rounded=0;whiteSpace=wrap;html=1;fontSize=20;" vertex="1" parent="1">
          <mxGeometry x="570" y="980" width="160" height="80" as="geometry" />
        </mxCell>
        <mxCell id="WxyTkHaTY3lBjSbzuxuf-51" value="" style="endArrow=none;html=1;rounded=0;exitX=0.5;exitY=0;exitDx=0;exitDy=0;entryX=0.5;entryY=1;entryDx=0;entryDy=0;fontSize=20;" edge="1" parent="1" source="WxyTkHaTY3lBjSbzuxuf-45" target="WxyTkHaTY3lBjSbzuxuf-31">
          <mxGeometry width="50" height="50" relative="1" as="geometry">
            <mxPoint x="850" y="980" as="sourcePoint" />
            <mxPoint x="900" y="930" as="targetPoint" />
          </mxGeometry>
        </mxCell>
        <mxCell id="WxyTkHaTY3lBjSbzuxuf-52" value="" style="endArrow=none;html=1;rounded=0;entryX=0.5;entryY=1;entryDx=0;entryDy=0;exitX=0.5;exitY=0;exitDx=0;exitDy=0;fontSize=20;" edge="1" parent="1">
          <mxGeometry width="50" height="50" relative="1" as="geometry">
            <mxPoint x="649.38" y="1140" as="sourcePoint" />
            <mxPoint x="649.38" y="1060" as="targetPoint" />
          </mxGeometry>
        </mxCell>
        <mxCell id="WxyTkHaTY3lBjSbzuxuf-53" value="&lt;font style=&quot;font-size: 20px;&quot;&gt;&lt;span style=&quot;font-size: 20px;&quot;&gt;Moviereview&lt;/span&gt;&lt;br style=&quot;font-size: 20px;&quot;&gt;&lt;/font&gt;" style="rounded=0;whiteSpace=wrap;html=1;fontSize=20;" vertex="1" parent="1">
          <mxGeometry x="580" y="990" width="160" height="80" as="geometry" />
        </mxCell>
        <mxCell id="WxyTkHaTY3lBjSbzuxuf-54" value="&lt;font style=&quot;font-size: 20px;&quot;&gt;Moviereview&lt;br style=&quot;font-size: 20px;&quot;&gt;detail&lt;br style=&quot;font-size: 20px;&quot;&gt;&lt;/font&gt;" style="rounded=0;whiteSpace=wrap;html=1;fontSize=20;" vertex="1" parent="1">
          <mxGeometry x="590" y="1000" width="160" height="80" as="geometry" />
        </mxCell>
        <mxCell id="WxyTkHaTY3lBjSbzuxuf-55" value="&lt;font style=&quot;font-size: 20px;&quot;&gt;&lt;span style=&quot;font-size: 20px;&quot;&gt;Moviereview&lt;br style=&quot;font-size: 20px;&quot;&gt;&lt;/span&gt;comment&lt;br style=&quot;font-size: 20px;&quot;&gt;&lt;/font&gt;" style="rounded=0;whiteSpace=wrap;html=1;fontSize=20;" vertex="1" parent="1">
          <mxGeometry x="570" y="1140" width="160" height="80" as="geometry" />
        </mxCell>
        <mxCell id="WxyTkHaTY3lBjSbzuxuf-56" value="" style="endArrow=none;html=1;rounded=0;fontSize=20;" edge="1" parent="1">
          <mxGeometry width="50" height="50" relative="1" as="geometry">
            <mxPoint x="650" y="940" as="sourcePoint" />
            <mxPoint x="850" y="940" as="targetPoint" />
          </mxGeometry>
        </mxCell>
        <mxCell id="WxyTkHaTY3lBjSbzuxuf-57" value="&lt;font style=&quot;font-size: 20px;&quot;&gt;Moviereview&lt;br style=&quot;font-size: 20px;&quot;&gt;update&lt;br style=&quot;font-size: 20px;&quot;&gt;&lt;/font&gt;" style="rounded=0;whiteSpace=wrap;html=1;fontSize=20;" vertex="1" parent="1">
          <mxGeometry x="770" y="980" width="160" height="80" as="geometry" />
        </mxCell>
        <mxCell id="WxyTkHaTY3lBjSbzuxuf-58" value="" style="endArrow=none;html=1;rounded=0;exitX=0.5;exitY=0;exitDx=0;exitDy=0;fontSize=20;" edge="1" parent="1" source="WxyTkHaTY3lBjSbzuxuf-57">
          <mxGeometry width="50" height="50" relative="1" as="geometry">
            <mxPoint x="990" y="890" as="sourcePoint" />
            <mxPoint x="850" y="940" as="targetPoint" />
          </mxGeometry>
        </mxCell>
        <mxCell id="WxyTkHaTY3lBjSbzuxuf-59" value="&lt;font style=&quot;font-size: 20px;&quot;&gt;&lt;span style=&quot;font-size: 20px;&quot;&gt;genre1&lt;/span&gt;&lt;br style=&quot;font-size: 20px;&quot;&gt;&lt;/font&gt;" style="rounded=0;whiteSpace=wrap;html=1;fontSize=20;" vertex="1" parent="1">
          <mxGeometry x="940" y="820" width="160" height="80" as="geometry" />
        </mxCell>
        <mxCell id="WxyTkHaTY3lBjSbzuxuf-60" value="&lt;font style=&quot;font-size: 20px;&quot;&gt;&lt;span style=&quot;font-size: 20px;&quot;&gt;genre2&lt;/span&gt;&lt;br style=&quot;font-size: 20px;&quot;&gt;&lt;/font&gt;" style="rounded=0;whiteSpace=wrap;html=1;fontSize=20;" vertex="1" parent="1">
          <mxGeometry x="1180" y="820" width="160" height="80" as="geometry" />
        </mxCell>
        <mxCell id="WxyTkHaTY3lBjSbzuxuf-61" value="&lt;font style=&quot;font-size: 20px;&quot;&gt;&lt;span style=&quot;font-size: 20px;&quot;&gt;genre3&lt;/span&gt;&lt;br style=&quot;font-size: 20px;&quot;&gt;&lt;/font&gt;" style="rounded=0;whiteSpace=wrap;html=1;fontSize=20;" vertex="1" parent="1">
          <mxGeometry x="1420" y="820" width="160" height="80" as="geometry" />
        </mxCell>
        <mxCell id="WxyTkHaTY3lBjSbzuxuf-62" value="&lt;font style=&quot;font-size: 20px;&quot;&gt;&lt;span style=&quot;font-size: 20px;&quot;&gt;moviecard&lt;/span&gt;&lt;br style=&quot;font-size: 20px;&quot;&gt;&lt;/font&gt;" style="rounded=0;whiteSpace=wrap;html=1;fontSize=20;" vertex="1" parent="1">
          <mxGeometry x="1180" y="980" width="160" height="80" as="geometry" />
        </mxCell>
        <mxCell id="WxyTkHaTY3lBjSbzuxuf-73" value="" style="endArrow=none;html=1;rounded=0;entryX=0.5;entryY=1;entryDx=0;entryDy=0;exitX=0.5;exitY=0;exitDx=0;exitDy=0;fontSize=20;" edge="1" parent="1" source="WxyTkHaTY3lBjSbzuxuf-60" target="WxyTkHaTY3lBjSbzuxuf-10">
          <mxGeometry width="50" height="50" relative="1" as="geometry">
            <mxPoint x="1140" y="920" as="sourcePoint" />
            <mxPoint x="1190" y="870" as="targetPoint" />
          </mxGeometry>
        </mxCell>
        <mxCell id="WxyTkHaTY3lBjSbzuxuf-74" value="" style="endArrow=none;html=1;rounded=0;fontSize=20;" edge="1" parent="1">
          <mxGeometry width="50" height="50" relative="1" as="geometry">
            <mxPoint x="1500" y="780" as="sourcePoint" />
            <mxPoint x="1020" y="780" as="targetPoint" />
          </mxGeometry>
        </mxCell>
        <mxCell id="WxyTkHaTY3lBjSbzuxuf-76" value="" style="endArrow=none;html=1;rounded=0;exitX=0.5;exitY=0;exitDx=0;exitDy=0;fontSize=20;" edge="1" parent="1" source="WxyTkHaTY3lBjSbzuxuf-59">
          <mxGeometry width="50" height="50" relative="1" as="geometry">
            <mxPoint x="1140" y="800" as="sourcePoint" />
            <mxPoint x="1020" y="780" as="targetPoint" />
          </mxGeometry>
        </mxCell>
        <mxCell id="WxyTkHaTY3lBjSbzuxuf-77" value="" style="endArrow=none;html=1;rounded=0;entryX=0.5;entryY=0;entryDx=0;entryDy=0;fontSize=20;" edge="1" parent="1" target="WxyTkHaTY3lBjSbzuxuf-61">
          <mxGeometry width="50" height="50" relative="1" as="geometry">
            <mxPoint x="1500" y="780" as="sourcePoint" />
            <mxPoint x="1190" y="750" as="targetPoint" />
          </mxGeometry>
        </mxCell>
        <mxCell id="WxyTkHaTY3lBjSbzuxuf-78" value="" style="endArrow=none;html=1;rounded=0;exitX=0.5;exitY=1;exitDx=0;exitDy=0;entryX=0.5;entryY=0;entryDx=0;entryDy=0;fontSize=20;" edge="1" parent="1" source="WxyTkHaTY3lBjSbzuxuf-60" target="WxyTkHaTY3lBjSbzuxuf-62">
          <mxGeometry width="50" height="50" relative="1" as="geometry">
            <mxPoint x="1140" y="800" as="sourcePoint" />
            <mxPoint x="1190" y="750" as="targetPoint" />
          </mxGeometry>
        </mxCell>
        <mxCell id="WxyTkHaTY3lBjSbzuxuf-80" value="" style="endArrow=none;html=1;rounded=0;fontSize=20;" edge="1" parent="1">
          <mxGeometry width="50" height="50" relative="1" as="geometry">
            <mxPoint x="1020" y="940" as="sourcePoint" />
            <mxPoint x="1500" y="940" as="targetPoint" />
          </mxGeometry>
        </mxCell>
        <mxCell id="WxyTkHaTY3lBjSbzuxuf-81" value="" style="endArrow=none;html=1;rounded=0;entryX=0.5;entryY=1;entryDx=0;entryDy=0;fontSize=20;" edge="1" parent="1" target="WxyTkHaTY3lBjSbzuxuf-59">
          <mxGeometry width="50" height="50" relative="1" as="geometry">
            <mxPoint x="1020" y="940" as="sourcePoint" />
            <mxPoint x="1190" y="750" as="targetPoint" />
          </mxGeometry>
        </mxCell>
        <mxCell id="WxyTkHaTY3lBjSbzuxuf-82" value="" style="endArrow=none;html=1;rounded=0;entryX=0.5;entryY=1;entryDx=0;entryDy=0;fontSize=20;" edge="1" parent="1" target="WxyTkHaTY3lBjSbzuxuf-61">
          <mxGeometry width="50" height="50" relative="1" as="geometry">
            <mxPoint x="1500" y="940" as="sourcePoint" />
            <mxPoint x="1190" y="750" as="targetPoint" />
          </mxGeometry>
        </mxCell>
        <mxCell id="WxyTkHaTY3lBjSbzuxuf-83" value="" style="endArrow=none;html=1;rounded=0;entryX=0.5;entryY=1;entryDx=0;entryDy=0;fontSize=20;" edge="1" parent="1" target="WxyTkHaTY3lBjSbzuxuf-62">
          <mxGeometry width="50" height="50" relative="1" as="geometry">
            <mxPoint x="1260" y="1140" as="sourcePoint" />
            <mxPoint x="1190" y="1000" as="targetPoint" />
          </mxGeometry>
        </mxCell>
        <mxCell id="WxyTkHaTY3lBjSbzuxuf-84" value="&lt;font style=&quot;font-size: 20px;&quot;&gt;&lt;span style=&quot;font-size: 20px;&quot;&gt;moviecard&lt;/span&gt;&lt;br style=&quot;font-size: 20px;&quot;&gt;&lt;/font&gt;" style="rounded=0;whiteSpace=wrap;html=1;fontSize=20;" vertex="1" parent="1">
          <mxGeometry x="1190" y="990" width="160" height="80" as="geometry" />
        </mxCell>
        <mxCell id="WxyTkHaTY3lBjSbzuxuf-85" value="&lt;font style=&quot;font-size: 20px;&quot;&gt;&lt;span style=&quot;font-size: 20px;&quot;&gt;moviecard&lt;/span&gt;&lt;br style=&quot;font-size: 20px;&quot;&gt;&lt;/font&gt;" style="rounded=0;whiteSpace=wrap;html=1;fontSize=20;" vertex="1" parent="1">
          <mxGeometry x="1200" y="1000" width="160" height="80" as="geometry" />
        </mxCell>
        <mxCell id="WxyTkHaTY3lBjSbzuxuf-86" value="&lt;font style=&quot;font-size: 20px;&quot;&gt;&lt;span style=&quot;font-size: 20px;&quot;&gt;movie&lt;br style=&quot;font-size: 20px;&quot;&gt;&lt;/span&gt;detail&lt;br style=&quot;font-size: 20px;&quot;&gt;&lt;/font&gt;" style="rounded=0;whiteSpace=wrap;html=1;fontSize=20;" vertex="1" parent="1">
          <mxGeometry x="1180" y="1140" width="160" height="80" as="geometry" />
        </mxCell>
        <mxCell id="WxyTkHaTY3lBjSbzuxuf-87" value="&lt;font style=&quot;font-size: 20px;&quot;&gt;&lt;span style=&quot;font-size: 20px;&quot;&gt;movie&lt;br style=&quot;font-size: 20px;&quot;&gt;&lt;/span&gt;detail&lt;br style=&quot;font-size: 20px;&quot;&gt;&lt;/font&gt;" style="rounded=0;whiteSpace=wrap;html=1;fontSize=20;" vertex="1" parent="1">
          <mxGeometry x="1190" y="1150" width="160" height="80" as="geometry" />
        </mxCell>
        <mxCell id="WxyTkHaTY3lBjSbzuxuf-88" value="&lt;font style=&quot;font-size: 20px;&quot;&gt;&lt;span style=&quot;font-size: 20px;&quot;&gt;movie&lt;br style=&quot;font-size: 20px;&quot;&gt;&lt;/span&gt;detail&lt;br style=&quot;font-size: 20px;&quot;&gt;&lt;/font&gt;" style="rounded=0;whiteSpace=wrap;html=1;fontSize=20;" vertex="1" parent="1">
          <mxGeometry x="1200" y="1160" width="160" height="80" as="geometry" />
        </mxCell>
        <mxCell id="WxyTkHaTY3lBjSbzuxuf-89" value="&lt;font style=&quot;font-size: 20px;&quot;&gt;&lt;span style=&quot;font-size: 20px;&quot;&gt;game2&lt;/span&gt;&lt;br style=&quot;font-size: 20px;&quot;&gt;&lt;/font&gt;" style="rounded=0;whiteSpace=wrap;html=1;fontSize=20;" vertex="1" parent="1">
          <mxGeometry x="1860" y="820" width="160" height="80" as="geometry" />
        </mxCell>
        <mxCell id="WxyTkHaTY3lBjSbzuxuf-90" value="&lt;font style=&quot;font-size: 20px;&quot;&gt;&lt;span style=&quot;font-size: 20px;&quot;&gt;game3&lt;/span&gt;&lt;br style=&quot;font-size: 20px;&quot;&gt;&lt;/font&gt;" style="rounded=0;whiteSpace=wrap;html=1;fontSize=20;" vertex="1" parent="1">
          <mxGeometry x="2100" y="820" width="160" height="80" as="geometry" />
        </mxCell>
        <mxCell id="WxyTkHaTY3lBjSbzuxuf-91" value="&lt;font style=&quot;font-size: 20px;&quot;&gt;&lt;span style=&quot;font-size: 20px;&quot;&gt;game1&lt;/span&gt;&lt;br style=&quot;font-size: 20px;&quot;&gt;&lt;/font&gt;" style="rounded=0;whiteSpace=wrap;html=1;fontSize=20;" vertex="1" parent="1">
          <mxGeometry x="1620" y="820" width="160" height="80" as="geometry" />
        </mxCell>
        <mxCell id="WxyTkHaTY3lBjSbzuxuf-92" value="" style="endArrow=none;html=1;rounded=0;entryX=0.5;entryY=1;entryDx=0;entryDy=0;exitX=0.5;exitY=0;exitDx=0;exitDy=0;fontSize=20;" edge="1" parent="1" source="WxyTkHaTY3lBjSbzuxuf-89" target="WxyTkHaTY3lBjSbzuxuf-12">
          <mxGeometry width="50" height="50" relative="1" as="geometry">
            <mxPoint x="1980" y="940" as="sourcePoint" />
            <mxPoint x="2030" y="890" as="targetPoint" />
          </mxGeometry>
        </mxCell>
        <mxCell id="WxyTkHaTY3lBjSbzuxuf-93" value="" style="endArrow=none;html=1;rounded=0;fontSize=20;" edge="1" parent="1">
          <mxGeometry width="50" height="50" relative="1" as="geometry">
            <mxPoint x="1700" y="780" as="sourcePoint" />
            <mxPoint x="2180" y="780" as="targetPoint" />
          </mxGeometry>
        </mxCell>
        <mxCell id="WxyTkHaTY3lBjSbzuxuf-94" value="" style="endArrow=none;html=1;rounded=0;exitX=0.5;exitY=0;exitDx=0;exitDy=0;fontSize=20;" edge="1" parent="1" source="WxyTkHaTY3lBjSbzuxuf-91">
          <mxGeometry width="50" height="50" relative="1" as="geometry">
            <mxPoint x="1980" y="940" as="sourcePoint" />
            <mxPoint x="1700" y="780" as="targetPoint" />
          </mxGeometry>
        </mxCell>
        <mxCell id="WxyTkHaTY3lBjSbzuxuf-95" value="" style="endArrow=none;html=1;rounded=0;exitX=0.5;exitY=0;exitDx=0;exitDy=0;fontSize=20;" edge="1" parent="1" source="WxyTkHaTY3lBjSbzuxuf-90">
          <mxGeometry width="50" height="50" relative="1" as="geometry">
            <mxPoint x="1980" y="940" as="sourcePoint" />
            <mxPoint x="2180" y="780" as="targetPoint" />
          </mxGeometry>
        </mxCell>
        <mxCell id="WxyTkHaTY3lBjSbzuxuf-96" value="&lt;span style=&quot;font-size: 20px;&quot;&gt;entertaincard&lt;/span&gt;" style="rounded=0;whiteSpace=wrap;html=1;fontSize=20;" vertex="1" parent="1">
          <mxGeometry x="1860" y="980" width="160" height="80" as="geometry" />
        </mxCell>
        <mxCell id="WxyTkHaTY3lBjSbzuxuf-99" value="" style="endArrow=none;html=1;rounded=0;exitX=0.5;exitY=0;exitDx=0;exitDy=0;entryX=0.5;entryY=1;entryDx=0;entryDy=0;fontSize=20;" edge="1" parent="1" source="WxyTkHaTY3lBjSbzuxuf-96" target="WxyTkHaTY3lBjSbzuxuf-89">
          <mxGeometry width="50" height="50" relative="1" as="geometry">
            <mxPoint x="1980" y="940" as="sourcePoint" />
            <mxPoint x="2030" y="890" as="targetPoint" />
          </mxGeometry>
        </mxCell>
        <mxCell id="WxyTkHaTY3lBjSbzuxuf-100" value="" style="endArrow=none;html=1;rounded=0;fontSize=20;" edge="1" parent="1">
          <mxGeometry width="50" height="50" relative="1" as="geometry">
            <mxPoint x="1700" y="940" as="sourcePoint" />
            <mxPoint x="2180" y="940" as="targetPoint" />
          </mxGeometry>
        </mxCell>
        <mxCell id="WxyTkHaTY3lBjSbzuxuf-101" value="" style="endArrow=none;html=1;rounded=0;entryX=0.5;entryY=1;entryDx=0;entryDy=0;fontSize=20;" edge="1" parent="1" target="WxyTkHaTY3lBjSbzuxuf-91">
          <mxGeometry width="50" height="50" relative="1" as="geometry">
            <mxPoint x="1700" y="940" as="sourcePoint" />
            <mxPoint x="2030" y="890" as="targetPoint" />
          </mxGeometry>
        </mxCell>
        <mxCell id="WxyTkHaTY3lBjSbzuxuf-102" value="" style="endArrow=none;html=1;rounded=0;entryX=0.5;entryY=1;entryDx=0;entryDy=0;fontSize=20;" edge="1" parent="1" target="WxyTkHaTY3lBjSbzuxuf-90">
          <mxGeometry width="50" height="50" relative="1" as="geometry">
            <mxPoint x="2180" y="940" as="sourcePoint" />
            <mxPoint x="2030" y="890" as="targetPoint" />
          </mxGeometry>
        </mxCell>
        <mxCell id="WxyTkHaTY3lBjSbzuxuf-109" value="&lt;span style=&quot;font-size: 20px;&quot;&gt;entertaincard&lt;/span&gt;" style="rounded=0;whiteSpace=wrap;html=1;fontSize=20;" vertex="1" parent="1">
          <mxGeometry x="1870" y="990" width="160" height="80" as="geometry" />
        </mxCell>
        <mxCell id="WxyTkHaTY3lBjSbzuxuf-110" value="&lt;span style=&quot;font-size: 20px;&quot;&gt;entertaincard&lt;/span&gt;" style="rounded=0;whiteSpace=wrap;html=1;fontSize=20;" vertex="1" parent="1">
          <mxGeometry x="1880" y="1000" width="160" height="80" as="geometry" />
        </mxCell>
        <mxCell id="WxyTkHaTY3lBjSbzuxuf-111" value="&lt;font style=&quot;font-size: 20px;&quot;&gt;&lt;span style=&quot;font-size: 20px;&quot;&gt;genre&lt;br style=&quot;font-size: 20px;&quot;&gt;&lt;/span&gt;select&lt;br style=&quot;font-size: 20px;&quot;&gt;&lt;/font&gt;" style="rounded=0;whiteSpace=wrap;html=1;fontSize=20;" vertex="1" parent="1">
          <mxGeometry x="2320" y="820" width="160" height="80" as="geometry" />
        </mxCell>
        <mxCell id="WxyTkHaTY3lBjSbzuxuf-112" value="" style="endArrow=none;html=1;rounded=0;entryX=0.5;entryY=1;entryDx=0;entryDy=0;exitX=0.5;exitY=0;exitDx=0;exitDy=0;fontSize=20;" edge="1" parent="1" source="WxyTkHaTY3lBjSbzuxuf-111" target="WxyTkHaTY3lBjSbzuxuf-9">
          <mxGeometry width="50" height="50" relative="1" as="geometry">
            <mxPoint x="2760" y="940" as="sourcePoint" />
            <mxPoint x="2810" y="890" as="targetPoint" />
          </mxGeometry>
        </mxCell>
        <mxCell id="WxyTkHaTY3lBjSbzuxuf-113" value="&lt;font style=&quot;font-size: 20px;&quot;&gt;&lt;span style=&quot;font-size: 20px;&quot;&gt;search&lt;/span&gt;&lt;br style=&quot;font-size: 20px;&quot;&gt;&lt;/font&gt;" style="rounded=0;whiteSpace=wrap;html=1;fontSize=20;" vertex="1" parent="1">
          <mxGeometry x="2760" y="660" width="160" height="80" as="geometry" />
        </mxCell>
        <mxCell id="WxyTkHaTY3lBjSbzuxuf-114" value="" style="endArrow=none;html=1;rounded=0;exitX=0.5;exitY=0;exitDx=0;exitDy=0;fontSize=20;" edge="1" parent="1" source="WxyTkHaTY3lBjSbzuxuf-113">
          <mxGeometry width="50" height="50" relative="1" as="geometry">
            <mxPoint x="2600" y="940" as="sourcePoint" />
            <mxPoint x="2840" y="620" as="targetPoint" />
          </mxGeometry>
        </mxCell>
        <mxCell id="WxyTkHaTY3lBjSbzuxuf-116" value="&lt;font style=&quot;font-size: 20px;&quot;&gt;&lt;span style=&quot;font-size: 20px;&quot;&gt;other user&lt;br style=&quot;font-size: 20px;&quot;&gt;&lt;/span&gt;profile&lt;br style=&quot;font-size: 20px;&quot;&gt;&lt;/font&gt;" style="rounded=0;whiteSpace=wrap;html=1;fontSize=20;" vertex="1" parent="1">
          <mxGeometry x="450" y="1300" width="160" height="80" as="geometry" />
        </mxCell>
        <mxCell id="WxyTkHaTY3lBjSbzuxuf-117" value="" style="endArrow=none;html=1;rounded=0;exitX=0.5;exitY=1;exitDx=0;exitDy=0;fontSize=20;" edge="1" parent="1" source="WxyTkHaTY3lBjSbzuxuf-41">
          <mxGeometry width="50" height="50" relative="1" as="geometry">
            <mxPoint x="1100" y="1070" as="sourcePoint" />
            <mxPoint x="410" y="1260" as="targetPoint" />
          </mxGeometry>
        </mxCell>
        <mxCell id="WxyTkHaTY3lBjSbzuxuf-118" value="" style="endArrow=none;html=1;rounded=0;entryX=0.5;entryY=1;entryDx=0;entryDy=0;fontSize=20;" edge="1" parent="1" target="WxyTkHaTY3lBjSbzuxuf-55">
          <mxGeometry width="50" height="50" relative="1" as="geometry">
            <mxPoint x="650" y="1260" as="sourcePoint" />
            <mxPoint x="1150" y="1020" as="targetPoint" />
          </mxGeometry>
        </mxCell>
        <mxCell id="WxyTkHaTY3lBjSbzuxuf-119" value="" style="endArrow=none;html=1;rounded=0;fontSize=20;" edge="1" parent="1">
          <mxGeometry width="50" height="50" relative="1" as="geometry">
            <mxPoint x="410" y="1260" as="sourcePoint" />
            <mxPoint x="650" y="1260" as="targetPoint" />
          </mxGeometry>
        </mxCell>
        <mxCell id="WxyTkHaTY3lBjSbzuxuf-120" value="" style="endArrow=none;html=1;rounded=0;entryX=0.5;entryY=0;entryDx=0;entryDy=0;fontSize=20;" edge="1" parent="1" target="WxyTkHaTY3lBjSbzuxuf-116">
          <mxGeometry width="50" height="50" relative="1" as="geometry">
            <mxPoint x="530" y="1260" as="sourcePoint" />
            <mxPoint x="1150" y="1020" as="targetPoint" />
          </mxGeometry>
        </mxCell>
        <mxCell id="WxyTkHaTY3lBjSbzuxuf-121" value="&lt;font style=&quot;font-size: 20px;&quot;&gt;&lt;span style=&quot;font-size: 20px;&quot;&gt;search&lt;br style=&quot;font-size: 20px;&quot;&gt;&lt;/span&gt;movie&lt;br style=&quot;font-size: 20px;&quot;&gt;&lt;/font&gt;" style="rounded=0;whiteSpace=wrap;html=1;fontSize=20;" vertex="1" parent="1">
          <mxGeometry x="2760" y="820" width="160" height="80" as="geometry" />
        </mxCell>
        <mxCell id="WxyTkHaTY3lBjSbzuxuf-125" value="" style="endArrow=none;html=1;rounded=0;entryX=0.5;entryY=1;entryDx=0;entryDy=0;exitX=0.5;exitY=0;exitDx=0;exitDy=0;fontSize=20;" edge="1" parent="1" source="WxyTkHaTY3lBjSbzuxuf-121" target="WxyTkHaTY3lBjSbzuxuf-113">
          <mxGeometry width="50" height="50" relative="1" as="geometry">
            <mxPoint x="2350" y="940" as="sourcePoint" />
            <mxPoint x="2400" y="890" as="targetPoint" />
          </mxGeometry>
        </mxCell>
      </root>
    </mxGraphModel>
  </diagram>
</mxfile>
